<svg width="64px" height="64px" viewBox="0 0 64 64" version="1.1" xmlns="http://www.w3.org/2000/svg">
    <g id="Sleek-Hair-Pin" stroke="none" stroke-width="1" fill="none" fill-rule="evenodd">
        <path d="M32,0 C14.326888,0 0,14.326888 0,32 C0,49.673112 32,64 32,64 C32,64 64,49.673112 64,32 C64,14.326888 49.673112,0 32,0 Z M32,46 C24.2680135,46 18,39.7319865 18,32 C18,24.2680135 24.2680135,18 32,18 C39.7319865,18 46,24.2680135 46,32 C46,39.7319865 39.7319865,46 32,46 Z" id="Pin-Shape" fill="#5E35B1"></path>
        <g id="White-Icon" transform="translate(18.000000, 18.000000)" fill="#FFFFFF" fill-rule="nonzero">
            <path d="M24.8,12.4 L19.6,7.2 L22.4,4.4 C23.2,3.6 23.2,2.4 22.4,1.6 C21.6,0.8 20.4,0.8 19.6,1.6 L16.8,4.4 L11.6,9.6 L6.4,4.4 C5.6,3.6 4.4,3.6 3.6,4.4 C2.8,5.2 2.8,6.4 3.6,7.2 L8.8,12.4 L3.6,17.6 C2.8,18.4 2.8,19.6 3.6,20.4 C4.4,21.2 5.6,21.2 6.4,20.4 L11.6,15.2 L16.8,20.4 C17.6,21.2 18.8,21.2 19.6,20.4 C20.4,19.6 20.4,18.4 19.6,17.6 L24.8,12.4 Z M26,2.5 L26,22.5 C26,23.3284271 26.6715729,24 27.5,24 C28.3284271,24 29,23.3284271 29,22.5 L29,2.5 C29,1.67157288 28.3284271,1 27.5,1 C26.6715729,1 26,1.67157288 26,2.5 Z M20.5,22 L24.5,22 L24.5,24 L20.5,24 L20.5,22 Z M20.5,18 L24.5,18 L24.5,20 L20.5,20 L20.5,18 Z M20.5,14 L24.5,14 L24.5,16 L20.5,16 L20.5,14 Z M20.5,10 L24.5,10 L24.5,12 L20.5,12 L20.5,10 Z M20.5,6 L24.5,6 L24.5,8 L20.5,8 L20.5,6 Z M20.5,2 L24.5,2 L24.5,4 L20.5,4 L20.5,2 Z" id="Icon-Path"></path>
        </g>
    </g>
</svg>
